<svg xmlns="http://www.w3.org/2000/svg" version="1.1" xmlns:xlink="http://www.w3.org/1999/xlink" xmlns:svgjs="http://svgjs.dev/svgjs" viewBox="0 0 800 800" width="800" height="800"><g stroke-width="1" stroke="#ffffff" fill="none"><rect width="50" height="50" x="0" y="0"></rect><rect width="50" height="50" x="50" y="0"></rect><rect width="50" height="50" x="100" y="0"></rect><rect width="50" height="50" x="150" y="0"></rect><rect width="50" height="50" x="200" y="0"></rect><rect width="50" height="50" x="250" y="0"></rect><rect width="50" height="50" x="300" y="0"></rect><rect width="50" height="50" x="350" y="0"></rect><rect width="50" height="50" x="400" y="0"></rect><rect width="50" height="50" x="450" y="0"></rect><rect width="50" height="50" x="500" y="0"></rect><rect width="50" height="50" x="550" y="0"></rect><rect width="50" height="50" x="600" y="0"></rect><rect width="50" height="50" x="650" y="0"></rect><rect width="50" height="50" x="700" y="0"></rect><rect width="50" height="50" x="750" y="0"></rect><rect width="50" height="50" x="800" y="0"></rect><rect width="50" height="50" x="0" y="50"></rect><rect width="50" height="50" x="50" y="50"></rect><rect width="50" height="50" x="100" y="50"></rect><rect width="50" height="50" x="150" y="50"></rect><rect width="50" height="50" x="200" y="50"></rect><rect width="50" height="50" x="250" y="50"></rect><rect width="50" height="50" x="300" y="50"></rect><rect width="50" height="50" x="350" y="50"></rect><rect width="50" height="50" x="400" y="50"></rect><rect width="50" height="50" x="450" y="50"></rect><rect width="50" height="50" x="500" y="50"></rect><rect width="50" height="50" x="550" y="50"></rect><rect width="50" height="50" x="600" y="50"></rect><rect width="50" height="50" x="650" y="50"></rect><rect width="50" height="50" x="700" y="50"></rect><rect width="50" height="50" x="750" y="50"></rect><rect width="50" height="50" x="800" y="50"></rect><rect width="50" height="50" x="0" y="100"></rect><rect width="50" height="50" x="50" y="100"></rect><rect width="50" height="50" x="100" y="100"></rect><rect width="50" height="50" x="150" y="100"></rect><rect width="50" height="50" x="200" y="100"></rect><rect width="50" height="50" x="250" y="100"></rect><rect width="50" height="50" x="300" y="100"></rect><rect width="50" height="50" x="350" y="100"></rect><rect width="50" height="50" x="400" y="100"></rect><rect width="50" height="50" x="450" y="100"></rect><rect width="50" height="50" x="500" y="100"></rect><rect width="50" height="50" x="550" y="100"></rect><rect width="50" height="50" x="600" y="100"></rect><rect width="50" height="50" x="650" y="100"></rect><rect width="50" height="50" x="700" y="100"></rect><rect width="50" height="50" x="750" y="100"></rect><rect width="50" height="50" x="800" y="100"></rect><rect width="50" height="50" x="0" y="150"></rect><rect width="50" height="50" x="50" y="150"></rect><rect width="50" height="50" x="100" y="150"></rect><rect width="50" height="50" x="150" y="150"></rect><rect width="50" height="50" x="200" y="150"></rect><rect width="50" height="50" x="250" y="150"></rect><rect width="50" height="50" x="300" y="150"></rect><rect width="50" height="50" x="350" y="150"></rect><rect width="50" height="50" x="400" y="150"></rect><rect width="50" height="50" x="450" y="150"></rect><rect width="50" height="50" x="500" y="150"></rect><rect width="50" height="50" x="550" y="150"></rect><rect width="50" height="50" x="600" y="150"></rect><rect width="50" height="50" x="650" y="150"></rect><rect width="50" height="50" x="700" y="150"></rect><rect width="50" height="50" x="750" y="150"></rect><rect width="50" height="50" x="800" y="150"></rect><rect width="50" height="50" x="0" y="200"></rect><rect width="50" height="50" x="50" y="200"></rect><rect width="50" height="50" x="100" y="200"></rect><rect width="50" height="50" x="150" y="200"></rect><rect width="50" height="50" x="200" y="200"></rect><rect width="50" height="50" x="250" y="200"></rect><rect width="50" height="50" x="300" y="200"></rect><rect width="50" height="50" x="350" y="200"></rect><rect width="50" height="50" x="400" y="200"></rect><rect width="50" height="50" x="450" y="200"></rect><rect width="50" height="50" x="500" y="200"></rect><rect width="50" height="50" x="550" y="200"></rect><rect width="50" height="50" x="600" y="200"></rect><rect width="50" height="50" x="650" y="200"></rect><rect width="50" height="50" x="700" y="200"></rect><rect width="50" height="50" x="750" y="200"></rect><rect width="50" height="50" x="800" y="200"></rect><rect width="50" height="50" x="0" y="250"></rect><rect width="50" height="50" x="50" y="250"></rect><rect width="50" height="50" x="100" y="250"></rect><rect width="50" height="50" x="150" y="250"></rect><rect width="50" height="50" x="200" y="250"></rect><rect width="50" height="50" x="250" y="250"></rect><rect width="50" height="50" x="300" y="250"></rect><rect width="50" height="50" x="350" y="250"></rect><rect width="50" height="50" x="400" y="250"></rect><rect width="50" height="50" x="450" y="250"></rect><rect width="50" height="50" x="500" y="250"></rect><rect width="50" height="50" x="550" y="250"></rect><rect width="50" height="50" x="600" y="250"></rect><rect width="50" height="50" x="650" y="250"></rect><rect width="50" height="50" x="700" y="250"></rect><rect width="50" height="50" x="750" y="250"></rect><rect width="50" height="50" x="800" y="250"></rect><rect width="50" height="50" x="0" y="300"></rect><rect width="50" height="50" x="50" y="300"></rect><rect width="50" height="50" x="100" y="300"></rect><rect width="50" height="50" x="150" y="300"></rect><rect width="50" height="50" x="200" y="300"></rect><rect width="50" height="50" x="250" y="300"></rect><rect width="50" height="50" x="300" y="300"></rect><rect width="50" height="50" x="350" y="300"></rect><rect width="50" height="50" x="400" y="300"></rect><rect width="50" height="50" x="450" y="300"></rect><rect width="50" height="50" x="500" y="300"></rect><rect width="50" height="50" x="550" y="300"></rect><rect width="50" height="50" x="600" y="300"></rect><rect width="50" height="50" x="650" y="300"></rect><rect width="50" height="50" x="700" y="300"></rect><rect width="50" height="50" x="750" y="300"></rect><rect width="50" height="50" x="800" y="300"></rect><rect width="50" height="50" x="0" y="350"></rect><rect width="50" height="50" x="50" y="350"></rect><rect width="50" height="50" x="100" y="350"></rect><rect width="50" height="50" x="150" y="350"></rect><rect width="50" height="50" x="200" y="350"></rect><rect width="50" height="50" x="250" y="350"></rect><rect width="50" height="50" x="300" y="350"></rect><rect width="50" height="50" x="350" y="350"></rect><rect width="50" height="50" x="400" y="350"></rect><rect width="50" height="50" x="450" y="350"></rect><rect width="50" height="50" x="500" y="350"></rect><rect width="50" height="50" x="550" y="350"></rect><rect width="50" height="50" x="600" y="350"></rect><rect width="50" height="50" x="650" y="350"></rect><rect width="50" height="50" x="700" y="350"></rect><rect width="50" height="50" x="750" y="350"></rect><rect width="50" height="50" x="800" y="350"></rect><rect width="50" height="50" x="0" y="400"></rect><rect width="50" height="50" x="50" y="400"></rect><rect width="50" height="50" x="100" y="400"></rect><rect width="50" height="50" x="150" y="400"></rect><rect width="50" height="50" x="200" y="400"></rect><rect width="50" height="50" x="250" y="400"></rect><rect width="50" height="50" x="300" y="400"></rect><rect width="50" height="50" x="350" y="400"></rect><rect width="50" height="50" x="400" y="400"></rect><rect width="50" height="50" x="450" y="400"></rect><rect width="50" height="50" x="500" y="400"></rect><rect width="50" height="50" x="550" y="400"></rect><rect width="50" height="50" x="600" y="400"></rect><rect width="50" height="50" x="650" y="400"></rect><rect width="50" height="50" x="700" y="400"></rect><rect width="50" height="50" x="750" y="400"></rect><rect width="50" height="50" x="800" y="400"></rect><rect width="50" height="50" x="0" y="450"></rect><rect width="50" height="50" x="50" y="450"></rect><rect width="50" height="50" x="100" y="450"></rect><rect width="50" height="50" x="150" y="450"></rect><rect width="50" height="50" x="200" y="450"></rect><rect width="50" height="50" x="250" y="450"></rect><rect width="50" height="50" x="300" y="450"></rect><rect width="50" height="50" x="350" y="450"></rect><rect width="50" height="50" x="400" y="450"></rect><rect width="50" height="50" x="450" y="450"></rect><rect width="50" height="50" x="500" y="450"></rect><rect width="50" height="50" x="550" y="450"></rect><rect width="50" height="50" x="600" y="450"></rect><rect width="50" height="50" x="650" y="450"></rect><rect width="50" height="50" x="700" y="450"></rect><rect width="50" height="50" x="750" y="450"></rect><rect width="50" height="50" x="800" y="450"></rect><rect width="50" height="50" x="0" y="500"></rect><rect width="50" height="50" x="50" y="500"></rect><rect width="50" height="50" x="100" y="500"></rect><rect width="50" height="50" x="150" y="500"></rect><rect width="50" height="50" x="200" y="500"></rect><rect width="50" height="50" x="250" y="500"></rect><rect width="50" height="50" x="300" y="500"></rect><rect width="50" height="50" x="350" y="500"></rect><rect width="50" height="50" x="400" y="500"></rect><rect width="50" height="50" x="450" y="500"></rect><rect width="50" height="50" x="500" y="500"></rect><rect width="50" height="50" x="550" y="500"></rect><rect width="50" height="50" x="600" y="500"></rect><rect width="50" height="50" x="650" y="500"></rect><rect width="50" height="50" x="700" y="500"></rect><rect width="50" height="50" x="750" y="500"></rect><rect width="50" height="50" x="800" y="500"></rect><rect width="50" height="50" x="0" y="550"></rect><rect width="50" height="50" x="50" y="550"></rect><rect width="50" height="50" x="100" y="550"></rect><rect width="50" height="50" x="150" y="550"></rect><rect width="50" height="50" x="200" y="550"></rect><rect width="50" height="50" x="250" y="550"></rect><rect width="50" height="50" x="300" y="550"></rect><rect width="50" height="50" x="350" y="550"></rect><rect width="50" height="50" x="400" y="550"></rect><rect width="50" height="50" x="450" y="550"></rect><rect width="50" height="50" x="500" y="550"></rect><rect width="50" height="50" x="550" y="550"></rect><rect width="50" height="50" x="600" y="550"></rect><rect width="50" height="50" x="650" y="550"></rect><rect width="50" height="50" x="700" y="550"></rect><rect width="50" height="50" x="750" y="550"></rect><rect width="50" height="50" x="800" y="550"></rect><rect width="50" height="50" x="0" y="600"></rect><rect width="50" height="50" x="50" y="600"></rect><rect width="50" height="50" x="100" y="600"></rect><rect width="50" height="50" x="150" y="600"></rect><rect width="50" height="50" x="200" y="600"></rect><rect width="50" height="50" x="250" y="600"></rect><rect width="50" height="50" x="300" y="600"></rect><rect width="50" height="50" x="350" y="600"></rect><rect width="50" height="50" x="400" y="600"></rect><rect width="50" height="50" x="450" y="600"></rect><rect width="50" height="50" x="500" y="600"></rect><rect width="50" height="50" x="550" y="600"></rect><rect width="50" height="50" x="600" y="600"></rect><rect width="50" height="50" x="650" y="600"></rect><rect width="50" height="50" x="700" y="600"></rect><rect width="50" height="50" x="750" y="600"></rect><rect width="50" height="50" x="800" y="600"></rect><rect width="50" height="50" x="0" y="650"></rect><rect width="50" height="50" x="50" y="650"></rect><rect width="50" height="50" x="100" y="650"></rect><rect width="50" height="50" x="150" y="650"></rect><rect width="50" height="50" x="200" y="650"></rect><rect width="50" height="50" x="250" y="650"></rect><rect width="50" height="50" x="300" y="650"></rect><rect width="50" height="50" x="350" y="650"></rect><rect width="50" height="50" x="400" y="650"></rect><rect width="50" height="50" x="450" y="650"></rect><rect width="50" height="50" x="500" y="650"></rect><rect width="50" height="50" x="550" y="650"></rect><rect width="50" height="50" x="600" y="650"></rect><rect width="50" height="50" x="650" y="650"></rect><rect width="50" height="50" x="700" y="650"></rect><rect width="50" height="50" x="750" y="650"></rect><rect width="50" height="50" x="800" y="650"></rect><rect width="50" height="50" x="0" y="700"></rect><rect width="50" height="50" x="50" y="700"></rect><rect width="50" height="50" x="100" y="700"></rect><rect width="50" height="50" x="150" y="700"></rect><rect width="50" height="50" x="200" y="700"></rect><rect width="50" height="50" x="250" y="700"></rect><rect width="50" height="50" x="300" y="700"></rect><rect width="50" height="50" x="350" y="700"></rect><rect width="50" height="50" x="400" y="700"></rect><rect width="50" height="50" x="450" y="700"></rect><rect width="50" height="50" x="500" y="700"></rect><rect width="50" height="50" x="550" y="700"></rect><rect width="50" height="50" x="600" y="700"></rect><rect width="50" height="50" x="650" y="700"></rect><rect width="50" height="50" x="700" y="700"></rect><rect width="50" height="50" x="750" y="700"></rect><rect width="50" height="50" x="800" y="700"></rect><rect width="50" height="50" x="0" y="750"></rect><rect width="50" height="50" x="50" y="750"></rect><rect width="50" height="50" x="100" y="750"></rect><rect width="50" height="50" x="150" y="750"></rect><rect width="50" height="50" x="200" y="750"></rect><rect width="50" height="50" x="250" y="750"></rect><rect width="50" height="50" x="300" y="750"></rect><rect width="50" height="50" x="350" y="750"></rect><rect width="50" height="50" x="400" y="750"></rect><rect width="50" height="50" x="450" y="750"></rect><rect width="50" height="50" x="500" y="750"></rect><rect width="50" height="50" x="550" y="750"></rect><rect width="50" height="50" x="600" y="750"></rect><rect width="50" height="50" x="650" y="750"></rect><rect width="50" height="50" x="700" y="750"></rect><rect width="50" height="50" x="750" y="750"></rect><rect width="50" height="50" x="800" y="750"></rect><rect width="50" height="50" x="0" y="800"></rect><rect width="50" height="50" x="50" y="800"></rect><rect width="50" height="50" x="100" y="800"></rect><rect width="50" height="50" x="150" y="800"></rect><rect width="50" height="50" x="200" y="800"></rect><rect width="50" height="50" x="250" y="800"></rect><rect width="50" height="50" x="300" y="800"></rect><rect width="50" height="50" x="350" y="800"></rect><rect width="50" height="50" x="400" y="800"></rect><rect width="50" height="50" x="450" y="800"></rect><rect width="50" height="50" x="500" y="800"></rect><rect width="50" height="50" x="550" y="800"></rect><rect width="50" height="50" x="600" y="800"></rect><rect width="50" height="50" x="650" y="800"></rect><rect width="50" height="50" x="700" y="800"></rect><rect width="50" height="50" x="750" y="800"></rect><rect width="50" height="50" x="800" y="800"></rect></g></svg>