<svg xmlns="http://www.w3.org/2000/svg" version="1.1" xmlns:xlink="http://www.w3.org/1999/xlink" xmlns:svgjs="http://svgjs.dev/svgjs" viewBox="0 0 800 800" width="800" height="800"><g stroke-width="1" stroke="#ffffff" fill="none"><rect width="88.88888888888889" height="88.88888888888889" x="0" y="0"></rect><rect width="88.88888888888889" height="88.88888888888889" x="88.88888888888889" y="0"></rect><rect width="88.88888888888889" height="88.88888888888889" x="177.77777777777777" y="0"></rect><rect width="88.88888888888889" height="88.88888888888889" x="266.66666666666663" y="0"></rect><rect width="88.88888888888889" height="88.88888888888889" x="355.55555555555554" y="0"></rect><rect width="88.88888888888889" height="88.88888888888889" x="444.44444444444446" y="0"></rect><rect width="88.88888888888889" height="88.88888888888889" x="533.3333333333334" y="0"></rect><rect width="88.88888888888889" height="88.88888888888889" x="622.2222222222223" y="0"></rect><rect width="88.88888888888889" height="88.88888888888889" x="711.1111111111112" y="0"></rect><rect width="88.88888888888889" height="88.88888888888889" x="800.0000000000001" y="0"></rect><rect width="88.88888888888889" height="88.88888888888889" x="0" y="88.88888888888889"></rect><rect width="88.88888888888889" height="88.88888888888889" x="88.88888888888889" y="88.88888888888889"></rect><rect width="88.88888888888889" height="88.88888888888889" x="177.77777777777777" y="88.88888888888889"></rect><rect width="88.88888888888889" height="88.88888888888889" x="266.66666666666663" y="88.88888888888889"></rect><rect width="88.88888888888889" height="88.88888888888889" x="355.55555555555554" y="88.88888888888889"></rect><rect width="88.88888888888889" height="88.88888888888889" x="444.44444444444446" y="88.88888888888889"></rect><rect width="88.88888888888889" height="88.88888888888889" x="533.3333333333334" y="88.88888888888889"></rect><rect width="88.88888888888889" height="88.88888888888889" x="622.2222222222223" y="88.88888888888889"></rect><rect width="88.88888888888889" height="88.88888888888889" x="711.1111111111112" y="88.88888888888889"></rect><rect width="88.88888888888889" height="88.88888888888889" x="800.0000000000001" y="88.88888888888889"></rect><rect width="88.88888888888889" height="88.88888888888889" x="0" y="177.77777777777777"></rect><rect width="88.88888888888889" height="88.88888888888889" x="88.88888888888889" y="177.77777777777777"></rect><rect width="88.88888888888889" height="88.88888888888889" x="177.77777777777777" y="177.77777777777777"></rect><rect width="88.88888888888889" height="88.88888888888889" x="266.66666666666663" y="177.77777777777777"></rect><rect width="88.88888888888889" height="88.88888888888889" x="355.55555555555554" y="177.77777777777777"></rect><rect width="88.88888888888889" height="88.88888888888889" x="444.44444444444446" y="177.77777777777777"></rect><rect width="88.88888888888889" height="88.88888888888889" x="533.3333333333334" y="177.77777777777777"></rect><rect width="88.88888888888889" height="88.88888888888889" x="622.2222222222223" y="177.77777777777777"></rect><rect width="88.88888888888889" height="88.88888888888889" x="711.1111111111112" y="177.77777777777777"></rect><rect width="88.88888888888889" height="88.88888888888889" x="800.0000000000001" y="177.77777777777777"></rect><rect width="88.88888888888889" height="88.88888888888889" x="0" y="266.66666666666663"></rect><rect width="88.88888888888889" height="88.88888888888889" x="88.88888888888889" y="266.66666666666663"></rect><rect width="88.88888888888889" height="88.88888888888889" x="177.77777777777777" y="266.66666666666663"></rect><rect width="88.88888888888889" height="88.88888888888889" x="266.66666666666663" y="266.66666666666663"></rect><rect width="88.88888888888889" height="88.88888888888889" x="355.55555555555554" y="266.66666666666663"></rect><rect width="88.88888888888889" height="88.88888888888889" x="444.44444444444446" y="266.66666666666663"></rect><rect width="88.88888888888889" height="88.88888888888889" x="533.3333333333334" y="266.66666666666663"></rect><rect width="88.88888888888889" height="88.88888888888889" x="622.2222222222223" y="266.66666666666663"></rect><rect width="88.88888888888889" height="88.88888888888889" x="711.1111111111112" y="266.66666666666663"></rect><rect width="88.88888888888889" height="88.88888888888889" x="800.0000000000001" y="266.66666666666663"></rect><rect width="88.88888888888889" height="88.88888888888889" x="0" y="355.55555555555554"></rect><rect width="88.88888888888889" height="88.88888888888889" x="88.88888888888889" y="355.55555555555554"></rect><rect width="88.88888888888889" height="88.88888888888889" x="177.77777777777777" y="355.55555555555554"></rect><rect width="88.88888888888889" height="88.88888888888889" x="266.66666666666663" y="355.55555555555554"></rect><rect width="88.88888888888889" height="88.88888888888889" x="355.55555555555554" y="355.55555555555554"></rect><rect width="88.88888888888889" height="88.88888888888889" x="444.44444444444446" y="355.55555555555554"></rect><rect width="88.88888888888889" height="88.88888888888889" x="533.3333333333334" y="355.55555555555554"></rect><rect width="88.88888888888889" height="88.88888888888889" x="622.2222222222223" y="355.55555555555554"></rect><rect width="88.88888888888889" height="88.88888888888889" x="711.1111111111112" y="355.55555555555554"></rect><rect width="88.88888888888889" height="88.88888888888889" x="800.0000000000001" y="355.55555555555554"></rect><rect width="88.88888888888889" height="88.88888888888889" x="0" y="444.44444444444446"></rect><rect width="88.88888888888889" height="88.88888888888889" x="88.88888888888889" y="444.44444444444446"></rect><rect width="88.88888888888889" height="88.88888888888889" x="177.77777777777777" y="444.44444444444446"></rect><rect width="88.88888888888889" height="88.88888888888889" x="266.66666666666663" y="444.44444444444446"></rect><rect width="88.88888888888889" height="88.88888888888889" x="355.55555555555554" y="444.44444444444446"></rect><rect width="88.88888888888889" height="88.88888888888889" x="444.44444444444446" y="444.44444444444446"></rect><rect width="88.88888888888889" height="88.88888888888889" x="533.3333333333334" y="444.44444444444446"></rect><rect width="88.88888888888889" height="88.88888888888889" x="622.2222222222223" y="444.44444444444446"></rect><rect width="88.88888888888889" height="88.88888888888889" x="711.1111111111112" y="444.44444444444446"></rect><rect width="88.88888888888889" height="88.88888888888889" x="800.0000000000001" y="444.44444444444446"></rect><rect width="88.88888888888889" height="88.88888888888889" x="0" y="533.3333333333334"></rect><rect width="88.88888888888889" height="88.88888888888889" x="88.88888888888889" y="533.3333333333334"></rect><rect width="88.88888888888889" height="88.88888888888889" x="177.77777777777777" y="533.3333333333334"></rect><rect width="88.88888888888889" height="88.88888888888889" x="266.66666666666663" y="533.3333333333334"></rect><rect width="88.88888888888889" height="88.88888888888889" x="355.55555555555554" y="533.3333333333334"></rect><rect width="88.88888888888889" height="88.88888888888889" x="444.44444444444446" y="533.3333333333334"></rect><rect width="88.88888888888889" height="88.88888888888889" x="533.3333333333334" y="533.3333333333334"></rect><rect width="88.88888888888889" height="88.88888888888889" x="622.2222222222223" y="533.3333333333334"></rect><rect width="88.88888888888889" height="88.88888888888889" x="711.1111111111112" y="533.3333333333334"></rect><rect width="88.88888888888889" height="88.88888888888889" x="800.0000000000001" y="533.3333333333334"></rect><rect width="88.88888888888889" height="88.88888888888889" x="0" y="622.2222222222223"></rect><rect width="88.88888888888889" height="88.88888888888889" x="88.88888888888889" y="622.2222222222223"></rect><rect width="88.88888888888889" height="88.88888888888889" x="177.77777777777777" y="622.2222222222223"></rect><rect width="88.88888888888889" height="88.88888888888889" x="266.66666666666663" y="622.2222222222223"></rect><rect width="88.88888888888889" height="88.88888888888889" x="355.55555555555554" y="622.2222222222223"></rect><rect width="88.88888888888889" height="88.88888888888889" x="444.44444444444446" y="622.2222222222223"></rect><rect width="88.88888888888889" height="88.88888888888889" x="533.3333333333334" y="622.2222222222223"></rect><rect width="88.88888888888889" height="88.88888888888889" x="622.2222222222223" y="622.2222222222223"></rect><rect width="88.88888888888889" height="88.88888888888889" x="711.1111111111112" y="622.2222222222223"></rect><rect width="88.88888888888889" height="88.88888888888889" x="800.0000000000001" y="622.2222222222223"></rect><rect width="88.88888888888889" height="88.88888888888889" x="0" y="711.1111111111112"></rect><rect width="88.88888888888889" height="88.88888888888889" x="88.88888888888889" y="711.1111111111112"></rect><rect width="88.88888888888889" height="88.88888888888889" x="177.77777777777777" y="711.1111111111112"></rect><rect width="88.88888888888889" height="88.88888888888889" x="266.66666666666663" y="711.1111111111112"></rect><rect width="88.88888888888889" height="88.88888888888889" x="355.55555555555554" y="711.1111111111112"></rect><rect width="88.88888888888889" height="88.88888888888889" x="444.44444444444446" y="711.1111111111112"></rect><rect width="88.88888888888889" height="88.88888888888889" x="533.3333333333334" y="711.1111111111112"></rect><rect width="88.88888888888889" height="88.88888888888889" x="622.2222222222223" y="711.1111111111112"></rect><rect width="88.88888888888889" height="88.88888888888889" x="711.1111111111112" y="711.1111111111112"></rect><rect width="88.88888888888889" height="88.88888888888889" x="800.0000000000001" y="711.1111111111112"></rect><rect width="88.88888888888889" height="88.88888888888889" x="0" y="800.0000000000001"></rect><rect width="88.88888888888889" height="88.88888888888889" x="88.88888888888889" y="800.0000000000001"></rect><rect width="88.88888888888889" height="88.88888888888889" x="177.77777777777777" y="800.0000000000001"></rect><rect width="88.88888888888889" height="88.88888888888889" x="266.66666666666663" y="800.0000000000001"></rect><rect width="88.88888888888889" height="88.88888888888889" x="355.55555555555554" y="800.0000000000001"></rect><rect width="88.88888888888889" height="88.88888888888889" x="444.44444444444446" y="800.0000000000001"></rect><rect width="88.88888888888889" height="88.88888888888889" x="533.3333333333334" y="800.0000000000001"></rect><rect width="88.88888888888889" height="88.88888888888889" x="622.2222222222223" y="800.0000000000001"></rect><rect width="88.88888888888889" height="88.88888888888889" x="711.1111111111112" y="800.0000000000001"></rect><rect width="88.88888888888889" height="88.88888888888889" x="800.0000000000001" y="800.0000000000001"></rect></g></svg>